<svg xmlns="http://www.w3.org/2000/svg" viewBox="0 0 32 32" fill="none">
  <defs>
    <linearGradient id="gear-gradient" x1="0%" y1="0%" x2="100%" y2="100%">
      <stop offset="0%" style="stop-color:#667eea"/>
      <stop offset="100%" style="stop-color:#764ba2"/>
    </linearGradient>
  </defs>
  <circle cx="16" cy="16" r="15" fill="url(#gear-gradient)"/>
  <g transform="translate(8, 8)" fill="white">
    <path d="M8 5.5a2.5 2.5 0 1 0 0 5 2.5 2.5 0 0 0 0-5zM4.5 8a3.5 3.5 0 1 1 7 0 3.5 3.5 0 0 1-7 0z"/>
    <path d="M7.47 1H8.53l.15 1.5a5 5 0 0 1 1.57.65l1.16-.94.75.42.75.42-.42 1.42a5 5 0 0 1 .88 1.42l1.5-.15v.85l.01.85-1.5.15a5 5 0 0 1-.65 1.57l.94 1.16-.42.75-.42.75-1.42-.42a5 5 0 0 1-1.42.88l.15 1.5H8.53l-.15-1.5a5 5 0 0 1-1.57-.65l-1.16.94-.75-.42-.75-.42.42-1.42a5 5 0 0 1-.88-1.42l-1.5.15V8.85L2.18 8l1.5-.15a5 5 0 0 1 .65-1.57l-.94-1.16.42-.75.42-.75 1.42.42a5 5 0 0 1 1.42-.88L7.47 1z"/>
  </g>
</svg>
